# xmcd
# 
# Track frame offsets:
#     150
#     32896
#     49561
#     77716
#     97824
#     126491
#     151161
#     167984
#     190116
#     210210
# 
# Disc length: 3055
# 
# Revision: 0
# Processed by: cddbd v1.5.2PL0 Copyright (c) Steve Scherf et al.
# Submitted via: fre:ac v1.1beta1pre4
# 
DISCID=760bed0a
DTITLE=Jilted Muse - Misfit's Mansion
DYEAR=2015
DGENRE=Blues
TTITLE0=Head Up High
TTITLE1=Greasy, But Fast
TTITLE2=Hurt to the Bone
TTITLE3=Since Now
TTITLE4=More Than You've Got
TTITLE5=R U Thru
TTITLE6=I Let It Go to the Blues
TTITLE7=Standing on a Storm
TTITLE8=Misfit's Mansion
TTITLE9=It's Over
EXTD=
EXTT0=
EXTT1=
EXTT2=
EXTT3=
EXTT4=
EXTT5=
EXTT6=
EXTT7=
EXTT8=
EXTT9=
PLAYORDER=
